# xmcd
#
# Track frame offsets:
#	150
#	29018
#	46130
#	71395
#	105281
#	142259
#	185289
#	208094
#	214578
#	236046
#
# Disc length: 3809 seconds
#
# Revision: 1
# Processed by: cddbd v1.5.1PL0 Copyright (c) Steve Scherf et al.
# Submitted via: audiograbber 1.83.01
#
DISCID=8f0edf0a
DTITLE=Madame Orean Cosby - Be Made Whole
DYEAR=2002
DGENRE=Gospel
TTITLE0=I'm On The Lord's Side
TTITLE1=Be Made Whole
TTITLE2=Create In Me
TTITLE3=Jesus Joy
TTITLE4=Sweetest Name I Know
TTITLE5=I'll Tell It
TTITLE6=He's Coming Again
TTITLE7=Holy Holy Holy
TTITLE8=He's My Friend
TTITLE9=Say What God Says
EXTD=
EXTT0=Orean Cosby - BMI\nD'JaCa Records\nD'JaCa Music Publisher - BMI\n
EXTT1=
EXTT2=
EXTT3=
EXTT4=
EXTT5=
EXTT6=
EXTT7=
EXTT8=
EXTT9=
PLAYORDER=
